<svg width="102" height="69" viewBox="0 0 102 69" fill="none" xmlns="http://www.w3.org/2000/svg">
<path fill-rule="evenodd" clip-rule="evenodd" d="M58.0449 41.0543C59.5602 43.0845 61.1282 44.6057 61.4617 44.9216H61.4675L61.5319 44.986C61.7718 45.2024 61.7835 45.571 61.567 45.8109C61.3505 46.0508 60.9819 46.0625 60.742 45.846C60.7408 45.8444 60.7286 45.8329 60.7065 45.8119L60.7064 45.8118C60.3247 45.45 56.9789 42.2781 55.0492 38.4741C54.3706 37.1284 53.8615 35.7008 53.7504 34.2615C53.7328 34.1094 53.7328 33.9515 53.7328 33.7935V33.7935C53.7387 32.3425 54.2185 30.8447 54.9147 29.4054C55.6109 27.9661 56.5236 26.5795 57.4364 25.3625C59.2618 22.9286 61.0872 21.1675 61.0872 21.1675C61.3154 20.9394 61.6899 20.9452 61.9122 21.1792C62.1404 21.4074 62.1345 21.7819 61.9005 22.0042L61.8595 22.0452L61.7308 22.1739C61.6861 22.2209 61.6329 22.2755 61.5724 22.3377C61.4823 22.4302 61.3759 22.5394 61.2569 22.6653C60.8532 23.0924 60.2915 23.7009 59.6714 24.4381C58.431 25.9067 56.939 27.9018 55.9678 29.9144C55.3125 31.2601 54.903 32.6116 54.903 33.7935C54.903 33.9222 54.903 34.0509 54.9147 34.1738C55.0844 36.4673 56.5237 39.024 58.0449 41.0543ZM66.5295 24.1546C66.7811 23.9498 67.1497 23.9849 67.3545 24.2365V24.2482C67.5593 24.4998 67.5242 24.8684 67.2726 25.0732L67.2375 25.1024L67.1263 25.196C67.0454 25.2627 66.9335 25.3603 66.7969 25.4795L66.7968 25.4796L66.6992 25.5646C66.3423 25.8864 65.8391 26.3486 65.2833 26.9103C64.1717 28.0278 62.8377 29.5373 61.9776 31.0526C61.3984 32.059 61.0474 33.0595 61.0474 33.9078C61.0474 34.0014 61.0532 34.0892 61.0591 34.1769C61.1293 35.0019 61.4745 35.9088 61.9835 36.7922C62.4867 37.6757 63.1478 38.5416 63.8265 39.3139C65.178 40.8585 66.5822 42.0111 66.8806 42.251L66.9391 42.2978C67.1907 42.4967 67.2375 42.8595 67.0385 43.1169C66.8396 43.3685 66.4769 43.4153 66.2194 43.2164C66.2177 43.2142 66.1982 43.1983 66.1627 43.1695C65.7203 42.8098 62.7996 40.4354 61.0825 37.5645C60.4681 36.5289 60.0001 35.4173 59.8948 34.2764C59.8772 34.1535 59.8772 34.0248 59.8772 33.902C59.8772 32.7435 60.3277 31.5792 60.9596 30.4676C61.5915 29.3559 62.4164 28.2911 63.2414 27.3608C64.7883 25.6103 66.3248 24.3259 66.5108 24.1704L66.5295 24.1546ZM45.4146 21.1697C45.1806 20.9474 44.812 20.9532 44.5897 21.1814C44.3673 21.4154 44.3732 21.784 44.6014 22.0063L44.6774 22.0824C45.0577 22.4568 46.813 24.2355 48.457 26.5114C49.282 27.6465 50.0718 28.9102 50.6511 30.1681C51.2361 31.4261 51.5989 32.684 51.593 33.7956V33.7958C51.593 33.9245 51.593 34.0473 51.5813 34.1759C51.4877 35.3987 51.043 36.6976 50.4053 37.9496C49.4575 39.8277 48.0884 41.6005 46.9651 42.8935C46.4034 43.5371 45.9002 44.0637 45.5375 44.4264C45.432 44.5319 45.3384 44.6235 45.2601 44.7002L45.2599 44.7003C45.2037 44.7554 45.1554 44.8027 45.1162 44.8418L45.0051 44.9471L44.97 44.9823C44.7301 45.1987 44.7184 45.5732 44.9349 45.8072C45.1513 46.0471 45.5258 46.0588 45.7598 45.8423C45.7774 45.8306 47.3922 44.3387 49.0713 42.168C49.9138 41.0798 50.7681 39.8219 51.4467 38.4762C52.1254 37.1305 52.6286 35.703 52.7456 34.2637C52.7573 34.1057 52.7632 33.9536 52.7632 33.7956C52.7632 32.3446 52.2776 30.8527 51.5813 29.4075C49.5274 25.1732 45.567 21.3235 45.4133 21.1741L45.4088 21.1697H45.4146ZM46.6161 33.902C46.6161 34.0248 46.6102 34.1535 46.5985 34.2764C46.4932 35.4173 46.0252 36.5289 45.4108 37.5645C44.7907 38.6001 44.0184 39.5713 43.2578 40.4021C41.7366 42.0696 40.2856 43.2047 40.268 43.2164C40.0165 43.4153 39.6479 43.3685 39.4489 43.1169C39.25 42.8653 39.291 42.4967 39.5484 42.2978L39.5776 42.2744L39.6771 42.1925C39.7649 42.1223 39.8936 42.017 40.0574 41.8765C40.3792 41.6016 40.8297 41.2037 41.3329 40.7122C42.3392 39.7352 43.5562 38.3895 44.3987 36.9736C44.9603 36.0316 45.3523 35.0604 45.4284 34.1769C45.4401 34.0892 45.4401 34.0014 45.4401 33.9078C45.4401 33.118 45.13 32.1818 44.6151 31.2399C44.1003 30.292 43.3982 29.3384 42.661 28.4783C41.1925 26.7582 39.6186 25.4067 39.2793 25.12L39.2149 25.0615C38.9633 24.8567 38.9282 24.4881 39.133 24.2365C39.3378 23.9849 39.7064 23.9498 39.9579 24.1546C39.959 24.1557 39.9674 24.1628 39.9828 24.1757C40.1373 24.3058 40.9922 25.0256 42.0408 26.0795C43.1934 27.238 44.5859 28.8001 45.5337 30.4676C46.1656 31.5792 46.6161 32.7377 46.6161 33.902Z" fill="#FF6E3D"/>
<path d="M61.4617 44.9216L61.1178 45.2846L61.2625 45.4216H61.4617V44.9216ZM58.0449 41.0543L58.4455 40.7552L58.445 40.7544L58.0449 41.0543ZM61.4675 44.9216L61.8211 44.568L61.6746 44.4216H61.4675V44.9216ZM61.5319 44.986L61.1784 45.3395L61.1874 45.3486L61.1969 45.3572L61.5319 44.986ZM61.567 45.8109L61.1958 45.4759L61.1958 45.4759L61.567 45.8109ZM60.742 45.846L60.3515 46.1582L60.3769 46.19L60.4071 46.2172L60.742 45.846ZM60.7065 45.8119L61.0505 45.4491L61.0467 45.4455L60.7065 45.8119ZM60.7064 45.8118L60.3624 46.1747L60.3662 46.1782L60.7064 45.8118ZM55.0492 38.4741L54.6028 38.6992L54.6033 38.7003L55.0492 38.4741ZM53.7504 34.2615L54.2489 34.223L54.2482 34.2136L54.2471 34.2042L53.7504 34.2615ZM53.7328 33.7935L53.2328 33.7915V33.7935H53.7328ZM54.9147 29.4054L54.4646 29.1877L54.9147 29.4054ZM57.4364 25.3625L57.8364 25.6625L57.4364 25.3625ZM61.0872 21.1675L61.4344 21.5274L61.4408 21.5211L61.0872 21.1675ZM61.9122 21.1792L61.5496 21.5237L61.5586 21.5328L61.9122 21.1792ZM61.9005 22.0042L61.556 21.6416L61.547 21.6506L61.9005 22.0042ZM61.8595 22.0452L61.506 21.6916L61.506 21.6916L61.8595 22.0452ZM61.7308 22.1739L61.3772 21.8202L61.3683 21.8295L61.7308 22.1739ZM61.5724 22.3377L61.2142 21.9888V21.9888L61.5724 22.3377ZM61.2569 22.6653L61.6203 23.0088L61.6204 23.0086L61.2569 22.6653ZM59.6714 24.4381L60.0533 24.7607L60.054 24.76L59.6714 24.4381ZM55.9678 29.9144L56.4174 30.1333L56.4181 30.1317L55.9678 29.9144ZM54.9147 34.1738L55.4134 34.1369L55.4124 34.1264L54.9147 34.1738ZM67.3545 24.2365H67.8545V24.0587L67.7423 23.9209L67.3545 24.2365ZM66.5295 24.1546L66.2138 23.7668L66.2075 23.7721L66.5295 24.1546ZM67.3545 24.2482H66.8545V24.426L66.9667 24.5639L67.3545 24.2482ZM67.2726 25.0732L66.9569 24.6854L66.9525 24.6891L67.2726 25.0732ZM67.2375 25.1024L66.9174 24.7183L66.9154 24.72L67.2375 25.1024ZM67.1263 25.196L67.4442 25.582L67.4484 25.5785L67.1263 25.196ZM66.7969 25.4795L67.1183 25.8626L67.1255 25.8563L66.7969 25.4795ZM66.7968 25.4796L66.4753 25.0965L66.4682 25.1027L66.7968 25.4796ZM66.6992 25.5646L66.3706 25.1877L66.3644 25.1933L66.6992 25.5646ZM65.2833 26.9103L65.6378 27.2629L65.6387 27.262L65.2833 26.9103ZM61.9776 31.0526L62.411 31.3021L62.4125 31.2994L61.9776 31.0526ZM61.0591 34.1769L60.5601 34.2102L60.5609 34.2193L61.0591 34.1769ZM61.9835 36.7922L62.418 36.5448L62.4167 36.5426L61.9835 36.7922ZM63.8265 39.3139L64.2028 38.9847L64.2021 38.9839L63.8265 39.3139ZM66.8806 42.251L66.5673 42.6407L66.5682 42.6414L66.8806 42.251ZM66.9391 42.2978L66.6267 42.6882L66.629 42.69L66.9391 42.2978ZM67.0385 43.1169L67.4308 43.427L67.4342 43.4226L67.0385 43.1169ZM66.2194 43.2164L65.8289 43.5286L65.8663 43.5754L65.9137 43.612L66.2194 43.2164ZM66.1627 43.1695L65.8473 43.5575L65.8473 43.5575L66.1627 43.1695ZM61.0825 37.5645L60.6524 37.8196L60.6534 37.8212L61.0825 37.5645ZM59.8948 34.2764L60.3927 34.2304L60.3915 34.218L60.3897 34.2057L59.8948 34.2764ZM60.9596 30.4676L61.3943 30.7147L60.9596 30.4676ZM63.2414 27.3608L63.6155 27.6926L63.6161 27.6919L63.2414 27.3608ZM66.5108 24.1704L66.8315 24.554L66.8328 24.5529L66.5108 24.1704ZM44.5897 21.1814L44.2315 20.8324L44.2272 20.837L44.5897 21.1814ZM45.4146 21.1697V21.6697H46.6669L45.759 20.8072L45.4146 21.1697ZM44.6014 22.0063L44.955 21.6528L44.9503 21.6482L44.6014 22.0063ZM44.6774 22.0824L44.3238 22.4359L44.3266 22.4387L44.6774 22.0824ZM48.457 26.5114L48.0517 26.8042L48.0526 26.8054L48.457 26.5114ZM50.6511 30.1681L50.1969 30.3773L50.1977 30.379L50.6511 30.1681ZM51.593 33.7956L51.093 33.793V33.7956H51.593ZM51.5813 34.1759L51.0833 34.1306L51.0828 34.1377L51.5813 34.1759ZM50.4053 37.9496L49.9598 37.7227L49.9589 37.7244L50.4053 37.9496ZM46.9651 42.8935L47.3418 43.2223L47.3425 43.2215L46.9651 42.8935ZM45.5375 44.4264L45.891 44.78H45.891L45.5375 44.4264ZM45.2601 44.7002L44.9104 44.3428L44.9081 44.3451L45.2601 44.7002ZM45.2599 44.7003L45.6097 45.0576L45.612 45.0554L45.2599 44.7003ZM45.1162 44.8418L45.4602 45.2049L45.4698 45.1954L45.1162 44.8418ZM45.0051 44.9471L44.6611 44.5841L44.6516 44.5935L45.0051 44.9471ZM44.97 44.9823L45.3049 45.3535L45.3144 45.3449L45.3234 45.3359L44.97 44.9823ZM44.9349 45.8072L45.3061 45.4722L45.3019 45.4677L44.9349 45.8072ZM45.7598 45.8423L45.4825 45.4263L45.4494 45.4483L45.4203 45.4753L45.7598 45.8423ZM49.0713 42.168L48.676 41.862L48.6759 41.8621L49.0713 42.168ZM52.7456 34.2637L53.244 34.3042L53.2442 34.3006L52.7456 34.2637ZM51.5813 29.4075L52.0318 29.1905L52.0312 29.1893L51.5813 29.4075ZM45.4133 21.1741L45.0643 21.5322L45.0648 21.5326L45.4133 21.1741ZM45.4088 21.1697V20.6697H44.1792L45.0598 21.5278L45.4088 21.1697ZM46.5985 34.2764L46.1008 34.229L46.1007 34.2304L46.5985 34.2764ZM45.4108 37.5645L45.8398 37.8214L45.8409 37.8196L45.4108 37.5645ZM43.2578 40.4021L42.889 40.0645L42.8884 40.0652L43.2578 40.4021ZM40.268 43.2164L39.9907 42.8003L39.9738 42.8116L39.9579 42.8242L40.268 43.2164ZM39.4489 43.1169L39.8411 42.8068L39.8411 42.8068L39.4489 43.1169ZM39.5484 42.2978L39.8542 42.6935L39.8608 42.6882L39.5484 42.2978ZM39.5776 42.2744L39.8901 42.6648L39.8955 42.6604L39.5776 42.2744ZM39.6771 42.1925L39.3647 41.802L39.3593 41.8065L39.6771 42.1925ZM40.0574 41.8765L39.7326 41.4964L39.732 41.4969L40.0574 41.8765ZM41.3329 40.7122L40.9846 40.3535L40.9835 40.3546L41.3329 40.7122ZM44.3987 36.9736L43.9692 36.7175L43.969 36.7179L44.3987 36.9736ZM45.4284 34.1769L44.9328 34.1109L44.9312 34.1224L44.9302 34.1341L45.4284 34.1769ZM44.6151 31.2399L44.1758 31.4785L44.1764 31.4797L44.6151 31.2399ZM42.661 28.4783L42.2807 28.803L42.2814 28.8037L42.661 28.4783ZM39.2793 25.12L38.9429 25.49L38.9497 25.4961L38.9566 25.5019L39.2793 25.12ZM39.2149 25.0615L39.5512 24.6915L39.5411 24.6823L39.5305 24.6737L39.2149 25.0615ZM39.133 24.2365L38.7452 23.9209H38.7452L39.133 24.2365ZM39.9579 24.1546L40.3115 23.8011L40.2934 23.783L40.2736 23.7668L39.9579 24.1546ZM39.9828 24.1757L39.6607 24.5582L39.6607 24.5582L39.9828 24.1757ZM42.0408 26.0795L42.3953 25.7268L42.0408 26.0795ZM45.5337 30.4676L45.099 30.7147H45.099L45.5337 30.4676ZM61.8056 44.5586C61.4821 44.2522 59.9368 42.7532 58.4455 40.7552L57.6442 41.3533C59.1836 43.4158 60.7743 44.9591 61.1178 45.2846L61.8056 44.5586ZM61.4675 44.4216H61.4617V45.4216H61.4675V44.4216ZM61.8854 44.6324L61.8211 44.568L61.114 45.2752L61.1784 45.3395L61.8854 44.6324ZM61.9382 46.1459C62.332 45.7095 62.3201 45.0238 61.8669 44.6148L61.1969 45.3572C61.2234 45.3811 61.2349 45.4326 61.1958 45.4759L61.9382 46.1459ZM60.4071 46.2172C60.8435 46.6111 61.5292 46.5992 61.9382 46.1459L61.1958 45.4759C61.1719 45.5024 61.1204 45.514 61.077 45.4748L60.4071 46.2172ZM60.3624 46.1747C60.3739 46.1856 60.3815 46.1928 60.3865 46.1976C60.3892 46.2002 60.3896 46.2006 60.3889 46.1999C60.3887 46.1997 60.3866 46.1976 60.3836 46.1945C60.3821 46.193 60.379 46.1899 60.3752 46.1857C60.3732 46.1836 60.3703 46.1805 60.3669 46.1765C60.3651 46.1745 60.3629 46.1721 60.3605 46.1692C60.3581 46.1663 60.355 46.1626 60.3515 46.1582L61.1326 45.5339C61.1208 45.5191 61.1107 45.5082 61.1082 45.5055C61.104 45.501 61.1005 45.4974 61.0985 45.4954C61.0945 45.4913 61.091 45.4879 61.0892 45.486C61.0851 45.4821 61.0809 45.478 61.0776 45.4749C61.0707 45.4682 61.0612 45.4592 61.0505 45.4491L60.3624 46.1747ZM60.3662 46.1782L60.3662 46.1783L61.0467 45.4455L61.0466 45.4454L60.3662 46.1782ZM54.6033 38.7003C56.5755 42.5882 59.9788 45.811 60.3624 46.1747L61.0504 45.449C60.6706 45.0889 57.3823 41.9681 55.4952 38.2479L54.6033 38.7003ZM53.2519 34.3C53.3699 35.8277 53.9075 37.3207 54.6028 38.6992L55.4957 38.2489C54.8336 36.9361 54.3532 35.574 54.2489 34.223L53.2519 34.3ZM53.2328 33.7935C53.2328 33.946 53.2323 34.1332 53.2537 34.3188L54.2471 34.2042C54.2334 34.0857 54.2328 33.957 54.2328 33.7935H53.2328ZM53.2328 33.7935V33.7935H54.2328V33.7935H53.2328ZM54.4646 29.1877C53.7515 30.6617 53.2391 32.2365 53.2328 33.7915L54.2328 33.7955C54.2383 32.4485 54.6854 31.0277 55.3648 29.6231L54.4646 29.1877ZM57.0364 25.0625C56.1118 26.2953 55.1794 27.7101 54.4646 29.1877L55.3648 29.6231C56.0425 28.2222 56.9355 26.8636 57.8364 25.6625L57.0364 25.0625ZM61.0872 21.1675C60.7401 20.8077 60.74 20.8077 60.74 20.8078C60.74 20.8078 60.7399 20.8079 60.7399 20.8079C60.7398 20.808 60.7396 20.8081 60.7395 20.8083C60.7392 20.8086 60.7387 20.809 60.7382 20.8095C60.7371 20.8105 60.7356 20.812 60.7337 20.8139C60.7298 20.8176 60.7242 20.8231 60.7169 20.8302C60.7024 20.8444 60.6811 20.8653 60.6536 20.8925C60.5985 20.947 60.5184 21.0269 60.4169 21.1302C60.2138 21.3369 59.9247 21.6371 59.5783 22.0139C58.8859 22.767 57.9617 23.8287 57.0364 25.0625L57.8364 25.6625C58.7365 24.4624 59.6377 23.4267 60.3144 22.6907C60.6525 22.323 60.9338 22.0309 61.1301 21.8312C61.2282 21.7314 61.305 21.6548 61.3569 21.6034C61.3828 21.5777 61.4026 21.5584 61.4156 21.5456C61.4222 21.5392 61.427 21.5345 61.4302 21.5315C61.4318 21.5299 61.4329 21.5288 61.4336 21.5281C61.4339 21.5278 61.4342 21.5276 61.4343 21.5274C61.4344 21.5274 61.4344 21.5273 61.4344 21.5273C61.4344 21.5273 61.4344 21.5273 61.4344 21.5273C61.4344 21.5274 61.4344 21.5274 61.0872 21.1675ZM62.2747 20.8349C61.8599 20.3983 61.1619 20.3858 60.7337 20.814L61.4408 21.5211C61.4689 21.4929 61.5198 21.4922 61.5497 21.5236L62.2747 20.8349ZM62.2449 22.3667C62.6815 21.9519 62.694 21.2539 62.2657 20.8257L61.5586 21.5328C61.5868 21.5609 61.5876 21.6118 61.5561 21.6417L62.2449 22.3667ZM62.2131 22.3987L62.254 22.3578L61.547 21.6506L61.506 21.6916L62.2131 22.3987ZM62.0844 22.5274L62.2131 22.3987L61.506 21.6916L61.3773 21.8203L62.0844 22.5274ZM61.9305 22.6866C61.9904 22.6251 62.046 22.5681 62.0933 22.5182L61.3683 21.8295C61.3263 21.8738 61.2755 21.9259 61.2142 21.9888L61.9305 22.6866ZM61.6204 23.0086C61.7364 22.8858 61.8403 22.7792 61.9305 22.6866L61.2142 21.9888C61.1242 22.0812 61.0153 22.1929 60.8934 22.322L61.6204 23.0086ZM60.054 24.76C60.6658 24.0327 61.2205 23.4318 61.6203 23.0088L60.8935 22.3219C60.4859 22.7531 59.9172 23.3691 59.2887 24.1162L60.054 24.76ZM56.4181 30.1317C57.3629 28.1739 58.8244 26.2158 60.0533 24.7607L59.2894 24.1155C58.0376 25.5975 56.5152 27.6296 55.5175 29.6971L56.4181 30.1317ZM55.403 33.7935C55.403 32.717 55.7793 31.4435 56.4174 30.1333L55.5183 29.6955C54.8457 31.0767 54.403 32.5063 54.403 33.7935H55.403ZM55.4124 34.1264C55.4034 34.0313 55.403 33.9269 55.403 33.7935H54.403C54.403 33.9175 54.4026 34.0705 54.4169 34.2212L55.4124 34.1264ZM58.445 40.7544C56.9365 38.7412 55.572 36.2813 55.4133 34.1369L54.4161 34.2107C54.5968 36.6533 56.1108 39.3069 57.6447 41.3541L58.445 40.7544ZM67.7423 23.9209C67.3605 23.4519 66.6764 23.3904 66.2139 23.7668L66.8452 24.5424C66.8859 24.5093 66.9389 24.518 66.9667 24.5521L67.7423 23.9209ZM67.8545 24.2482V24.2365H66.8545V24.2482H67.8545ZM67.5882 25.461C68.0572 25.0792 68.1187 24.395 67.7423 23.9326L66.9667 24.5639C66.9998 24.6046 66.9911 24.6576 66.9569 24.6854L67.5882 25.461ZM67.5576 25.4865L67.5927 25.4573L66.9525 24.6891L66.9174 24.7183L67.5576 25.4865ZM67.4484 25.5785L67.5595 25.4849L66.9154 24.72L66.8042 24.8136L67.4484 25.5785ZM67.1255 25.8563C67.2646 25.735 67.3701 25.643 67.4442 25.582L66.8085 24.8101C66.7207 24.8824 66.6023 24.9857 66.4682 25.1027L67.1255 25.8563ZM67.1182 25.8625L67.1183 25.8625L66.4754 25.0965L66.4753 25.0966L67.1182 25.8625ZM67.0278 25.9415L67.1254 25.8564L66.4682 25.1027L66.3706 25.1878L67.0278 25.9415ZM65.6387 27.262C66.1851 26.7098 66.6805 26.2547 67.034 25.936L66.3644 25.1933C66.0041 25.5181 65.4931 25.9874 64.9279 26.5586L65.6387 27.262ZM62.4125 31.2994C63.2398 29.8418 64.537 28.3695 65.6378 27.2629L64.9288 26.5577C63.8063 27.6861 62.4356 29.2328 61.5428 30.8058L62.4125 31.2994ZM61.5474 33.9078C61.5474 33.1836 61.8526 32.2722 62.411 31.3021L61.5443 30.8032C60.9442 31.8457 60.5474 32.9353 60.5474 33.9078H61.5474ZM61.558 34.1437C61.552 34.054 61.5474 33.9823 61.5474 33.9078H60.5474C60.5474 34.0206 60.5544 34.1244 60.5602 34.2102L61.558 34.1437ZM62.4167 36.5426C61.9285 35.6953 61.619 34.8605 61.5573 34.1345L60.5609 34.2193C60.6395 35.1433 61.0204 36.1222 61.5503 37.0418L62.4167 36.5426ZM64.2021 38.9839C63.5375 38.2276 62.8991 37.3896 62.418 36.5448L61.549 37.0397C62.0742 37.9618 62.7581 38.8556 63.4509 39.644L64.2021 38.9839ZM67.1939 41.8613C66.9051 41.6292 65.5265 40.4975 64.2028 38.9847L63.4502 39.6432C64.8295 41.2195 66.2593 42.393 66.5673 42.6407L67.1939 41.8613ZM67.2514 41.9074L67.1929 41.8605L66.5682 42.6414L66.6267 42.6882L67.2514 41.9074ZM67.4342 43.4226C67.8013 42.9475 67.7148 42.2737 67.2492 41.9056L66.629 42.69C66.6665 42.7197 66.6736 42.7714 66.6429 42.8112L67.4342 43.4226ZM65.9137 43.612C66.3888 43.9791 67.0626 43.8926 67.4307 43.427L66.6463 42.8068C66.6166 42.8443 66.5649 42.8514 66.5252 42.8207L65.9137 43.612ZM65.8473 43.5575C65.8656 43.5723 65.8779 43.5823 65.886 43.589C65.8903 43.5925 65.8911 43.5933 65.8902 43.5925C65.89 43.5923 65.8866 43.5894 65.882 43.5852C65.8797 43.5831 65.8748 43.5786 65.8686 43.5726C65.8655 43.5695 65.8607 43.5647 65.855 43.5587C65.8521 43.5556 65.8484 43.5516 65.8443 43.5469C65.8403 43.5424 65.835 43.5362 65.8289 43.5286L66.6099 42.9041C66.5903 42.8796 66.5725 42.8623 66.5692 42.859C66.5625 42.8525 66.557 42.8474 66.5539 42.8446C66.5477 42.839 66.5423 42.8343 66.5394 42.8319C66.5332 42.8266 66.5267 42.8212 66.5214 42.8168C66.5104 42.8078 66.4953 42.7955 66.4781 42.7815L65.8473 43.5575ZM60.6534 37.8212C62.4205 40.7758 65.4059 43.1986 65.8473 43.5575L66.4781 42.7815C66.0346 42.421 63.1786 40.095 61.5116 37.3079L60.6534 37.8212ZM59.3969 34.3224C59.5116 35.5654 60.018 36.7502 60.6524 37.8196L61.5125 37.3094C60.9183 36.3077 60.4885 35.2693 60.3927 34.2304L59.3969 34.3224ZM59.3772 33.902C59.3772 34.0183 59.3764 34.183 59.3998 34.3471L60.3897 34.2057C60.3781 34.1241 60.3772 34.0314 60.3772 33.902H59.3772ZM60.5249 30.2205C59.8744 31.365 59.3772 32.6185 59.3772 33.902H60.3772C60.3772 32.8685 60.7811 31.7935 61.3943 30.7147L60.5249 30.2205ZM62.8673 27.0291C62.0285 27.975 61.1797 29.0685 60.5249 30.2205L61.3943 30.7147C62.0033 29.6433 62.8044 28.6072 63.6155 27.6926L62.8673 27.0291ZM66.1901 23.7868C65.9977 23.9476 64.4385 25.251 62.8667 27.0297L63.6161 27.6919C65.138 25.9696 66.6518 24.7041 66.8315 24.554L66.1901 23.7868ZM66.2075 23.7721L66.1888 23.7879L66.8328 24.5529L66.8515 24.5371L66.2075 23.7721ZM44.9478 21.5303C44.9761 21.5012 45.0315 21.4954 45.0702 21.5322L45.759 20.8072C45.3297 20.3993 44.6479 20.4052 44.2315 20.8324L44.9478 21.5303ZM44.9503 21.6482C44.9212 21.6199 44.9154 21.5645 44.9522 21.5258L44.2272 20.837C43.8193 21.2663 43.8252 21.9481 44.2524 22.3645L44.9503 21.6482ZM45.031 21.7289L44.955 21.6528L44.2478 22.3599L44.3238 22.4359L45.031 21.7289ZM48.8623 26.2186C47.1954 23.911 45.4185 22.1104 45.0282 21.7261L44.3266 22.4387C44.697 22.8033 46.4305 24.56 48.0517 26.8042L48.8623 26.2186ZM51.1052 29.959C50.5083 28.6628 49.6993 27.3703 48.8615 26.2175L48.0526 26.8054C48.8646 27.9227 49.6353 29.1577 50.1969 30.3773L51.1052 29.959ZM52.093 33.7982C52.0994 32.5847 51.706 31.2507 51.1044 29.9573L50.1977 30.379C50.7663 31.6014 51.0983 32.7832 51.093 33.793L52.093 33.7982ZM52.093 33.7958V33.7956H51.093V33.7958H52.093ZM52.0793 34.2212C52.0933 34.0664 52.093 33.9213 52.093 33.7958H51.093C51.093 33.9277 51.0927 34.0282 51.0834 34.1306L52.0793 34.2212ZM50.8508 38.1766C51.5066 36.8891 51.9795 35.5246 52.0799 34.2141L51.0828 34.1377C50.9959 35.2728 50.5795 36.5061 49.9598 37.7227L50.8508 38.1766ZM47.3425 43.2215C48.4781 41.9143 49.8772 40.1058 50.8517 38.1749L49.9589 37.7244C49.0378 39.5497 47.6987 41.2867 46.5876 42.5656L47.3425 43.2215ZM45.891 44.78C46.261 44.4101 46.7719 43.8752 47.3418 43.2223L46.5884 42.5648C46.0348 43.199 45.5395 43.7173 45.1839 44.0729L45.891 44.78ZM45.6099 45.0575C45.6881 44.9809 45.7834 44.8876 45.891 44.78L45.1839 44.0729C45.0806 44.1763 44.9887 44.2662 44.9104 44.3428L45.6099 45.0575ZM45.612 45.0554L45.6121 45.0552L44.9081 44.3451L44.9079 44.3453L45.612 45.0554ZM45.4698 45.1954C45.5066 45.1586 45.5528 45.1134 45.6097 45.0576L44.9102 44.343C44.8546 44.3974 44.8041 44.4468 44.7627 44.4883L45.4698 45.1954ZM45.349 45.3101L45.4601 45.2048L44.7723 44.4789L44.6612 44.5842L45.349 45.3101ZM45.3234 45.3359L45.3585 45.3008L44.6516 44.5935L44.6165 44.6286L45.3234 45.3359ZM45.3019 45.4677C45.2883 45.453 45.2799 45.432 45.2809 45.4076C45.2818 45.3841 45.291 45.366 45.3049 45.3535L44.635 44.6111C44.184 45.018 44.1661 45.7125 44.5678 46.1467L45.3019 45.4677ZM45.4203 45.4753C45.4056 45.4889 45.3846 45.4972 45.3602 45.4963C45.3367 45.4954 45.3186 45.4862 45.306 45.4722L44.5637 46.1422C44.9706 46.5931 45.6651 46.6111 46.0993 46.2094L45.4203 45.4753ZM48.6759 41.8621C47.8493 42.9306 47.0377 43.8331 46.4306 44.4697C46.1273 44.7878 45.8757 45.0389 45.6996 45.2104C45.6116 45.2961 45.5427 45.3618 45.4959 45.4057C45.4724 45.4278 45.4549 45.444 45.4436 45.4544C45.4378 45.4597 45.4345 45.4627 45.4331 45.4639C45.4323 45.4646 45.4334 45.4637 45.4356 45.4618C45.4365 45.4609 45.4395 45.4584 45.4435 45.4551C45.4455 45.4535 45.4491 45.4505 45.4538 45.4469C45.457 45.4444 45.4678 45.4361 45.4825 45.4263L46.0372 46.2583C46.0519 46.2485 46.063 46.24 46.0664 46.2373C46.0713 46.2335 46.0752 46.2303 46.0776 46.2284C46.0822 46.2246 46.086 46.2213 46.088 46.2196C46.0923 46.2159 46.0963 46.2124 46.099 46.2099C46.105 46.2047 46.1119 46.1984 46.1193 46.1916C46.1344 46.1777 46.155 46.1586 46.1807 46.1345C46.2321 46.0861 46.3053 46.0164 46.3974 45.9267C46.5815 45.7473 46.8419 45.4875 47.1543 45.1598C47.7788 44.5049 48.6142 43.5761 49.4668 42.474L48.6759 41.8621ZM51.0003 38.2511C50.3402 39.5598 49.5056 40.7903 48.676 41.862L49.4667 42.4741C50.3221 41.3693 51.1959 40.0839 51.8932 38.7014L51.0003 38.2511ZM52.2473 34.2232C52.1372 35.5765 51.6616 36.9398 51.0003 38.2511L51.8932 38.7014C52.5892 37.3213 53.12 35.8294 53.244 34.3042L52.2473 34.2232ZM52.2632 33.7956C52.2632 33.9408 52.2578 34.0806 52.247 34.2267L53.2442 34.3006C53.2568 34.1308 53.2632 33.9664 53.2632 33.7956H52.2632ZM51.1309 29.6246C51.8116 31.0375 52.2632 32.4512 52.2632 33.7956H53.2632C53.2632 32.2381 52.7435 30.6678 52.0318 29.1905L51.1309 29.6246ZM45.0648 21.5326C45.2189 21.6824 49.1198 25.4785 51.1314 29.6258L52.0312 29.1893C49.935 24.8678 45.9151 20.9646 45.7618 20.8155L45.0648 21.5326ZM45.0598 21.5278L45.0643 21.5322L45.7622 20.816L45.7577 20.8116L45.0598 21.5278ZM45.4146 20.6697H45.4088V21.6697H45.4146V20.6697ZM47.0963 34.3238C47.1096 34.1846 47.1161 34.04 47.1161 33.902H46.1161C46.1161 34.0096 46.1109 34.1225 46.1008 34.229L47.0963 34.3238ZM45.8409 37.8196C46.4753 36.7502 46.9817 35.5654 47.0964 34.3224L46.1007 34.2304C46.0048 35.2693 45.575 36.3077 44.9808 37.3094L45.8409 37.8196ZM43.6266 40.7398C44.4028 39.8918 45.1977 38.8936 45.8398 37.8214L44.9819 37.3076C44.3836 38.3066 43.6339 39.2509 42.889 40.0645L43.6266 40.7398ZM40.5454 43.6324C40.5708 43.6154 40.6195 43.5764 40.6512 43.5511C40.6978 43.5139 40.764 43.4604 40.8472 43.3916C41.0137 43.254 41.2488 43.055 41.5313 42.8038C42.0957 42.3018 42.8519 41.5889 43.6271 40.7391L42.8884 40.0652C42.1424 40.8829 41.4125 41.5712 40.8668 42.0565C40.5941 42.299 40.3682 42.4901 40.2101 42.6208C40.1311 42.6861 40.0692 42.7362 40.0271 42.7698C39.9701 42.8153 39.9696 42.8144 39.9907 42.8003L40.5454 43.6324ZM39.0567 43.427C39.4233 43.8906 40.1054 43.9824 40.5782 43.6086L39.9579 42.8242C39.9275 42.8482 39.8724 42.8463 39.8411 42.8068L39.0567 43.427ZM39.2427 41.9022C38.7618 42.2737 38.6877 42.9603 39.0567 43.427L39.8411 42.8068C39.8123 42.7703 39.8201 42.7197 39.8541 42.6934L39.2427 41.9022ZM39.2652 41.884L39.236 41.9074L39.8608 42.6882L39.89 42.6648L39.2652 41.884ZM39.3593 41.8065L39.2598 41.8884L39.8955 42.6604L39.9949 42.5785L39.3593 41.8065ZM39.732 41.4969C39.5726 41.6335 39.4483 41.7352 39.3648 41.802L39.9895 42.5829C40.0814 42.5093 40.2145 42.4004 40.3828 42.2562L39.732 41.4969ZM40.9835 40.3546C40.4904 40.8362 40.0485 41.2264 39.7326 41.4964L40.3822 42.2567C40.7099 41.9767 41.169 41.5712 41.6822 41.0699L40.9835 40.3546ZM43.969 36.7179C43.1585 38.08 41.9764 39.3905 40.9846 40.3535L41.6812 41.071C42.702 40.0798 43.9538 38.699 44.8284 37.2293L43.969 36.7179ZM44.9302 34.1341C44.8632 34.9123 44.5112 35.8086 43.9692 36.7175L44.8281 37.2297C45.4095 36.2546 45.8414 35.2085 45.9265 34.2198L44.9302 34.1341ZM44.9401 33.9078C44.9401 34.0073 44.9393 34.0616 44.9328 34.1109L45.924 34.243C45.9408 34.1168 45.9401 33.9956 45.9401 33.9078H44.9401ZM44.1764 31.4797C44.6712 32.3849 44.9401 33.2355 44.9401 33.9078H45.9401C45.9401 33.0004 45.5889 31.9788 45.0539 31.0001L44.1764 31.4797ZM42.2814 28.8037C43.004 29.6467 43.6829 30.5711 44.1758 31.4785L45.0545 31.0012C44.5177 30.013 43.7924 29.03 43.0406 28.1529L42.2814 28.8037ZM38.9566 25.5019C39.2885 25.7823 40.8383 27.1135 42.2807 28.803L43.0413 28.1537C41.5466 26.4029 39.9487 25.031 39.6019 24.738L38.9566 25.5019ZM38.8786 25.4315L38.9429 25.49L39.6156 24.75L39.5512 24.6915L38.8786 25.4315ZM38.7452 23.9209C38.3688 24.3833 38.4302 25.0675 38.8993 25.4493L39.5305 24.6737C39.4964 24.6459 39.4876 24.5929 39.5208 24.5521L38.7452 23.9209ZM40.2736 23.7668C39.8111 23.3904 39.127 23.4519 38.7452 23.9209L39.5208 24.5521C39.5486 24.518 39.6016 24.5093 39.6423 24.5424L40.2736 23.7668ZM40.3048 23.7932C40.2969 23.7865 40.2916 23.7821 40.2882 23.7792C40.2863 23.7776 40.286 23.7773 40.2865 23.7778C40.2867 23.7779 40.2882 23.7792 40.2903 23.7811C40.2913 23.782 40.2934 23.7838 40.296 23.7862C40.2973 23.7874 40.2993 23.7892 40.3015 23.7914C40.3037 23.7934 40.3072 23.7968 40.3115 23.8011L39.6044 24.5081C39.6121 24.5159 39.6185 24.5217 39.6205 24.5235C39.6233 24.5261 39.6257 24.5283 39.6271 24.5295C39.6299 24.532 39.6323 24.5341 39.6337 24.5353C39.6366 24.5377 39.6395 24.5403 39.6419 24.5422C39.6467 24.5463 39.6533 24.5519 39.6607 24.5582L40.3048 23.7932ZM42.3953 25.7268C41.3319 24.6581 40.4645 23.9276 40.3048 23.7932L39.6607 24.5582C39.8102 24.684 40.6525 25.3931 41.6864 26.4322L42.3953 25.7268ZM45.9684 30.2205C44.9879 28.4955 43.5589 26.8963 42.3953 25.7268L41.6864 26.4322C42.828 27.5796 44.1839 29.1047 45.099 30.7147L45.9684 30.2205ZM47.1161 33.902C47.1161 32.6124 46.6188 31.3647 45.9684 30.2205L45.099 30.7147C45.7124 31.7937 46.1161 32.8629 46.1161 33.902H47.1161Z" fill="#FF6E3D"/>
<path d="M72.0589 5.34987C26.6908 -6.26629 4.91316 8.25582 2.00956 15.5119C-3.43484 28.2171 13.9873 42.7385 33.9481 56.8939C49.3348 67.8056 66.614 71.7753 84.7625 63.7902C97.4657 57.2569 119.243 15.5165 72.0589 5.34987Z" stroke="#FF6E3D" stroke-width="2"/>
</svg>
